<mxfile host="app.diagrams.net" modified="2023-08-05T15:15:27.657Z" agent="Mozilla/5.0 (Windows NT 10.0; Win64; x64) AppleWebKit/537.36 (KHTML, like Gecko) Chrome/115.0.0.0 Safari/537.36" etag="eWah1KR91fkU79SI5KSx" version="21.6.5" type="github" pages="3">
  <diagram name="第 1 页" id="rmQvQ7ixHq1P9Izbeguj">
    <mxGraphModel dx="2064" dy="1340" grid="1" gridSize="10" guides="1" tooltips="1" connect="1" arrows="1" fold="1" page="1" pageScale="1" pageWidth="827" pageHeight="1169" math="0" shadow="0">
      <root>
        <mxCell id="0" />
        <mxCell id="1" parent="0" />
        <mxCell id="DcCfHuT2zm9i7vaj_5bC-3" value="" style="edgeStyle=orthogonalEdgeStyle;rounded=0;orthogonalLoop=1;jettySize=auto;html=1;" parent="1" source="DcCfHuT2zm9i7vaj_5bC-1" target="DcCfHuT2zm9i7vaj_5bC-2" edge="1">
          <mxGeometry relative="1" as="geometry" />
        </mxCell>
        <mxCell id="DcCfHuT2zm9i7vaj_5bC-1" value="1" style="ellipse;whiteSpace=wrap;html=1;" parent="1" vertex="1">
          <mxGeometry x="449" y="290" width="100" height="60" as="geometry" />
        </mxCell>
        <mxCell id="DcCfHuT2zm9i7vaj_5bC-64" value="" style="edgeStyle=orthogonalEdgeStyle;rounded=0;orthogonalLoop=1;jettySize=auto;html=1;" parent="1" source="DcCfHuT2zm9i7vaj_5bC-2" target="DcCfHuT2zm9i7vaj_5bC-6" edge="1">
          <mxGeometry relative="1" as="geometry" />
        </mxCell>
        <mxCell id="DcCfHuT2zm9i7vaj_5bC-2" value="2" style="ellipse;whiteSpace=wrap;html=1;" parent="1" vertex="1">
          <mxGeometry x="612" y="290" width="90" height="60" as="geometry" />
        </mxCell>
        <mxCell id="DcCfHuT2zm9i7vaj_5bC-63" value="" style="edgeStyle=orthogonalEdgeStyle;rounded=0;orthogonalLoop=1;jettySize=auto;html=1;" parent="1" source="DcCfHuT2zm9i7vaj_5bC-6" target="DcCfHuT2zm9i7vaj_5bC-8" edge="1">
          <mxGeometry relative="1" as="geometry" />
        </mxCell>
        <mxCell id="DcCfHuT2zm9i7vaj_5bC-6" value="3" style="ellipse;whiteSpace=wrap;html=1;" parent="1" vertex="1">
          <mxGeometry x="772" y="290" width="90" height="60" as="geometry" />
        </mxCell>
        <mxCell id="DcCfHuT2zm9i7vaj_5bC-65" value="" style="edgeStyle=orthogonalEdgeStyle;rounded=0;orthogonalLoop=1;jettySize=auto;html=1;" parent="1" source="DcCfHuT2zm9i7vaj_5bC-8" edge="1">
          <mxGeometry relative="1" as="geometry">
            <mxPoint x="1072" y="320" as="targetPoint" />
          </mxGeometry>
        </mxCell>
        <mxCell id="DcCfHuT2zm9i7vaj_5bC-8" value="4" style="ellipse;whiteSpace=wrap;html=1;" parent="1" vertex="1">
          <mxGeometry x="922" y="290" width="80" height="60" as="geometry" />
        </mxCell>
        <mxCell id="DcCfHuT2zm9i7vaj_5bC-10" value="5" style="ellipse;whiteSpace=wrap;html=1;" parent="1" vertex="1">
          <mxGeometry x="1069" y="287" width="80" height="60" as="geometry" />
        </mxCell>
        <mxCell id="DcCfHuT2zm9i7vaj_5bC-12" value="" style="edgeStyle=orthogonalEdgeStyle;rounded=0;orthogonalLoop=1;jettySize=auto;html=1;" parent="1" source="DcCfHuT2zm9i7vaj_5bC-13" target="DcCfHuT2zm9i7vaj_5bC-15" edge="1">
          <mxGeometry relative="1" as="geometry" />
        </mxCell>
        <mxCell id="DcCfHuT2zm9i7vaj_5bC-13" value="5" style="ellipse;whiteSpace=wrap;html=1;" parent="1" vertex="1">
          <mxGeometry x="269" y="1450" width="100" height="60" as="geometry" />
        </mxCell>
        <mxCell id="DcCfHuT2zm9i7vaj_5bC-14" value="" style="edgeStyle=orthogonalEdgeStyle;rounded=0;orthogonalLoop=1;jettySize=auto;html=1;" parent="1" source="DcCfHuT2zm9i7vaj_5bC-15" target="DcCfHuT2zm9i7vaj_5bC-17" edge="1">
          <mxGeometry relative="1" as="geometry" />
        </mxCell>
        <mxCell id="DcCfHuT2zm9i7vaj_5bC-15" value="4" style="ellipse;whiteSpace=wrap;html=1;" parent="1" vertex="1">
          <mxGeometry x="419" y="1450" width="90" height="60" as="geometry" />
        </mxCell>
        <mxCell id="DcCfHuT2zm9i7vaj_5bC-16" value="" style="edgeStyle=orthogonalEdgeStyle;rounded=0;orthogonalLoop=1;jettySize=auto;html=1;" parent="1" source="DcCfHuT2zm9i7vaj_5bC-17" target="DcCfHuT2zm9i7vaj_5bC-19" edge="1">
          <mxGeometry relative="1" as="geometry" />
        </mxCell>
        <mxCell id="DcCfHuT2zm9i7vaj_5bC-17" value="3" style="ellipse;whiteSpace=wrap;html=1;" parent="1" vertex="1">
          <mxGeometry x="579" y="1450" width="90" height="60" as="geometry" />
        </mxCell>
        <mxCell id="DcCfHuT2zm9i7vaj_5bC-18" value="" style="edgeStyle=orthogonalEdgeStyle;rounded=0;orthogonalLoop=1;jettySize=auto;html=1;" parent="1" source="DcCfHuT2zm9i7vaj_5bC-19" target="DcCfHuT2zm9i7vaj_5bC-20" edge="1">
          <mxGeometry relative="1" as="geometry" />
        </mxCell>
        <mxCell id="DcCfHuT2zm9i7vaj_5bC-19" value="2" style="ellipse;whiteSpace=wrap;html=1;" parent="1" vertex="1">
          <mxGeometry x="729" y="1450" width="80" height="60" as="geometry" />
        </mxCell>
        <mxCell id="DcCfHuT2zm9i7vaj_5bC-20" value="1" style="ellipse;whiteSpace=wrap;html=1;" parent="1" vertex="1">
          <mxGeometry x="879" y="1450" width="80" height="60" as="geometry" />
        </mxCell>
        <mxCell id="DcCfHuT2zm9i7vaj_5bC-21" value="-1" style="ellipse;whiteSpace=wrap;html=1;" parent="1" vertex="1">
          <mxGeometry x="1195" y="292" width="100" height="55" as="geometry" />
        </mxCell>
        <mxCell id="DcCfHuT2zm9i7vaj_5bC-235" style="edgeStyle=orthogonalEdgeStyle;rounded=0;orthogonalLoop=1;jettySize=auto;html=1;entryX=0.5;entryY=0;entryDx=0;entryDy=0;" parent="1" source="DcCfHuT2zm9i7vaj_5bC-25" target="DcCfHuT2zm9i7vaj_5bC-1" edge="1">
          <mxGeometry relative="1" as="geometry" />
        </mxCell>
        <mxCell id="DcCfHuT2zm9i7vaj_5bC-25" value="cur指针" style="text;html=1;align=center;verticalAlign=middle;resizable=0;points=[];autosize=1;strokeColor=none;fillColor=none;" parent="1" vertex="1">
          <mxGeometry x="535" y="217" width="60" height="30" as="geometry" />
        </mxCell>
        <mxCell id="DcCfHuT2zm9i7vaj_5bC-233" style="edgeStyle=orthogonalEdgeStyle;rounded=0;orthogonalLoop=1;jettySize=auto;html=1;" parent="1" source="DcCfHuT2zm9i7vaj_5bC-26" target="DcCfHuT2zm9i7vaj_5bC-1" edge="1">
          <mxGeometry relative="1" as="geometry" />
        </mxCell>
        <mxCell id="DcCfHuT2zm9i7vaj_5bC-26" value="head指针" style="text;html=1;align=center;verticalAlign=middle;resizable=0;points=[];autosize=1;strokeColor=none;fillColor=none;" parent="1" vertex="1">
          <mxGeometry x="405" y="217" width="70" height="30" as="geometry" />
        </mxCell>
        <mxCell id="DcCfHuT2zm9i7vaj_5bC-234" style="edgeStyle=orthogonalEdgeStyle;rounded=0;orthogonalLoop=1;jettySize=auto;html=1;entryX=0.5;entryY=0;entryDx=0;entryDy=0;" parent="1" source="DcCfHuT2zm9i7vaj_5bC-27" target="DcCfHuT2zm9i7vaj_5bC-21" edge="1">
          <mxGeometry relative="1" as="geometry" />
        </mxCell>
        <mxCell id="DcCfHuT2zm9i7vaj_5bC-27" value="ans指针" style="text;html=1;align=center;verticalAlign=middle;resizable=0;points=[];autosize=1;strokeColor=none;fillColor=none;" parent="1" vertex="1">
          <mxGeometry x="1210" y="217" width="70" height="30" as="geometry" />
        </mxCell>
        <mxCell id="DcCfHuT2zm9i7vaj_5bC-33" value="操作步骤：1.next = cur.next,临时保存节点2&lt;br&gt;2. cur.next = ans.next,指向null&lt;br&gt;3.ans.next=cur,虚拟节点指向当前节点&lt;br&gt;4.cur=next当前节点指向临时节点" style="text;html=1;align=center;verticalAlign=middle;resizable=0;points=[];autosize=1;strokeColor=none;fillColor=none;" parent="1" vertex="1">
          <mxGeometry x="701.5" y="130" width="250" height="70" as="geometry" />
        </mxCell>
        <mxCell id="DcCfHuT2zm9i7vaj_5bC-58" value="" style="edgeStyle=orthogonalEdgeStyle;rounded=0;orthogonalLoop=1;jettySize=auto;html=1;" parent="1" source="DcCfHuT2zm9i7vaj_5bC-59" target="DcCfHuT2zm9i7vaj_5bC-61" edge="1">
          <mxGeometry relative="1" as="geometry" />
        </mxCell>
        <mxCell id="DcCfHuT2zm9i7vaj_5bC-59" value="3" style="ellipse;whiteSpace=wrap;html=1;" parent="1" vertex="1">
          <mxGeometry x="600" y="940" width="90" height="60" as="geometry" />
        </mxCell>
        <mxCell id="DcCfHuT2zm9i7vaj_5bC-60" value="" style="edgeStyle=orthogonalEdgeStyle;rounded=0;orthogonalLoop=1;jettySize=auto;html=1;" parent="1" source="DcCfHuT2zm9i7vaj_5bC-61" target="DcCfHuT2zm9i7vaj_5bC-62" edge="1">
          <mxGeometry relative="1" as="geometry" />
        </mxCell>
        <mxCell id="DcCfHuT2zm9i7vaj_5bC-61" value="4" style="ellipse;whiteSpace=wrap;html=1;" parent="1" vertex="1">
          <mxGeometry x="750" y="940" width="80" height="60" as="geometry" />
        </mxCell>
        <mxCell id="DcCfHuT2zm9i7vaj_5bC-62" value="5" style="ellipse;whiteSpace=wrap;html=1;" parent="1" vertex="1">
          <mxGeometry x="900" y="940" width="80" height="60" as="geometry" />
        </mxCell>
        <mxCell id="DcCfHuT2zm9i7vaj_5bC-67" value="" style="edgeStyle=orthogonalEdgeStyle;rounded=0;orthogonalLoop=1;jettySize=auto;html=1;" parent="1" source="DcCfHuT2zm9i7vaj_5bC-66" edge="1">
          <mxGeometry relative="1" as="geometry">
            <mxPoint x="600" y="970" as="targetPoint" />
          </mxGeometry>
        </mxCell>
        <mxCell id="DcCfHuT2zm9i7vaj_5bC-66" value="1.next" style="text;html=1;align=center;verticalAlign=middle;resizable=0;points=[];autosize=1;strokeColor=none;fillColor=none;" parent="1" vertex="1">
          <mxGeometry x="470" y="955" width="60" height="30" as="geometry" />
        </mxCell>
        <mxCell id="DcCfHuT2zm9i7vaj_5bC-176" value="" style="edgeStyle=orthogonalEdgeStyle;rounded=0;orthogonalLoop=1;jettySize=auto;html=1;" parent="1" source="DcCfHuT2zm9i7vaj_5bC-69" target="DcCfHuT2zm9i7vaj_5bC-175" edge="1">
          <mxGeometry relative="1" as="geometry" />
        </mxCell>
        <mxCell id="DcCfHuT2zm9i7vaj_5bC-69" value="2.cur,next=ans.next" style="text;html=1;align=center;verticalAlign=middle;resizable=0;points=[];autosize=1;strokeColor=none;fillColor=none;" parent="1" vertex="1">
          <mxGeometry x="470" y="1035" width="130" height="30" as="geometry" />
        </mxCell>
        <mxCell id="DcCfHuT2zm9i7vaj_5bC-93" value="" style="edgeStyle=orthogonalEdgeStyle;rounded=0;orthogonalLoop=1;jettySize=auto;html=1;" parent="1" source="DcCfHuT2zm9i7vaj_5bC-81" target="DcCfHuT2zm9i7vaj_5bC-82" edge="1">
          <mxGeometry relative="1" as="geometry" />
        </mxCell>
        <mxCell id="DcCfHuT2zm9i7vaj_5bC-81" value="3.ans.next=cur" style="text;html=1;align=center;verticalAlign=middle;resizable=0;points=[];autosize=1;strokeColor=none;fillColor=none;" parent="1" vertex="1">
          <mxGeometry x="475" y="1115" width="100" height="30" as="geometry" />
        </mxCell>
        <mxCell id="DcCfHuT2zm9i7vaj_5bC-179" value="" style="edgeStyle=orthogonalEdgeStyle;rounded=0;orthogonalLoop=1;jettySize=auto;html=1;" parent="1" source="DcCfHuT2zm9i7vaj_5bC-82" target="DcCfHuT2zm9i7vaj_5bC-178" edge="1">
          <mxGeometry relative="1" as="geometry" />
        </mxCell>
        <mxCell id="DcCfHuT2zm9i7vaj_5bC-82" value="-1" style="ellipse;whiteSpace=wrap;html=1;" parent="1" vertex="1">
          <mxGeometry x="620" y="1100" width="90" height="59.5" as="geometry" />
        </mxCell>
        <mxCell id="DcCfHuT2zm9i7vaj_5bC-83" value="" style="edgeStyle=orthogonalEdgeStyle;rounded=0;orthogonalLoop=1;jettySize=auto;html=1;" parent="1" source="DcCfHuT2zm9i7vaj_5bC-84" target="DcCfHuT2zm9i7vaj_5bC-86" edge="1">
          <mxGeometry relative="1" as="geometry" />
        </mxCell>
        <mxCell id="DcCfHuT2zm9i7vaj_5bC-84" value="1" style="ellipse;whiteSpace=wrap;html=1;" parent="1" vertex="1">
          <mxGeometry x="910" y="1099.5" width="100" height="60" as="geometry" />
        </mxCell>
        <mxCell id="DcCfHuT2zm9i7vaj_5bC-86" value="null" style="ellipse;whiteSpace=wrap;html=1;" parent="1" vertex="1">
          <mxGeometry x="1063" y="1100" width="90" height="60" as="geometry" />
        </mxCell>
        <mxCell id="DcCfHuT2zm9i7vaj_5bC-121" value="" style="edgeStyle=orthogonalEdgeStyle;rounded=0;orthogonalLoop=1;jettySize=auto;html=1;" parent="1" edge="1">
          <mxGeometry relative="1" as="geometry">
            <mxPoint x="540" y="1215" as="sourcePoint" />
            <mxPoint x="620" y="1215" as="targetPoint" />
          </mxGeometry>
        </mxCell>
        <mxCell id="DcCfHuT2zm9i7vaj_5bC-94" value="4.cur=next" style="text;html=1;align=center;verticalAlign=middle;resizable=0;points=[];autosize=1;strokeColor=none;fillColor=none;" parent="1" vertex="1">
          <mxGeometry x="475" y="1200" width="80" height="30" as="geometry" />
        </mxCell>
        <mxCell id="DcCfHuT2zm9i7vaj_5bC-113" value="" style="edgeStyle=orthogonalEdgeStyle;rounded=0;orthogonalLoop=1;jettySize=auto;html=1;" parent="1" source="DcCfHuT2zm9i7vaj_5bC-104" target="DcCfHuT2zm9i7vaj_5bC-112" edge="1">
          <mxGeometry relative="1" as="geometry" />
        </mxCell>
        <mxCell id="DcCfHuT2zm9i7vaj_5bC-104" value="1" style="ellipse;whiteSpace=wrap;html=1;" parent="1" vertex="1">
          <mxGeometry x="831" y="1020" width="90" height="60" as="geometry" />
        </mxCell>
        <mxCell id="DcCfHuT2zm9i7vaj_5bC-112" value="null" style="ellipse;whiteSpace=wrap;html=1;" parent="1" vertex="1">
          <mxGeometry x="980" y="1020" width="90" height="60" as="geometry" />
        </mxCell>
        <mxCell id="DcCfHuT2zm9i7vaj_5bC-116" value="" style="edgeStyle=orthogonalEdgeStyle;rounded=0;orthogonalLoop=1;jettySize=auto;html=1;" parent="1" source="DcCfHuT2zm9i7vaj_5bC-117" target="DcCfHuT2zm9i7vaj_5bC-119" edge="1">
          <mxGeometry relative="1" as="geometry" />
        </mxCell>
        <mxCell id="DcCfHuT2zm9i7vaj_5bC-117" value="3" style="ellipse;whiteSpace=wrap;html=1;" parent="1" vertex="1">
          <mxGeometry x="621" y="1185" width="90" height="60" as="geometry" />
        </mxCell>
        <mxCell id="DcCfHuT2zm9i7vaj_5bC-118" value="" style="edgeStyle=orthogonalEdgeStyle;rounded=0;orthogonalLoop=1;jettySize=auto;html=1;" parent="1" source="DcCfHuT2zm9i7vaj_5bC-119" target="DcCfHuT2zm9i7vaj_5bC-120" edge="1">
          <mxGeometry relative="1" as="geometry" />
        </mxCell>
        <mxCell id="DcCfHuT2zm9i7vaj_5bC-119" value="4" style="ellipse;whiteSpace=wrap;html=1;" parent="1" vertex="1">
          <mxGeometry x="771" y="1185" width="80" height="60" as="geometry" />
        </mxCell>
        <mxCell id="DcCfHuT2zm9i7vaj_5bC-120" value="5" style="ellipse;whiteSpace=wrap;html=1;" parent="1" vertex="1">
          <mxGeometry x="921" y="1185" width="80" height="60" as="geometry" />
        </mxCell>
        <mxCell id="DcCfHuT2zm9i7vaj_5bC-130" value="" style="edgeStyle=orthogonalEdgeStyle;rounded=0;orthogonalLoop=1;jettySize=auto;html=1;" parent="1" source="DcCfHuT2zm9i7vaj_5bC-122" target="DcCfHuT2zm9i7vaj_5bC-126" edge="1">
          <mxGeometry relative="1" as="geometry" />
        </mxCell>
        <mxCell id="DcCfHuT2zm9i7vaj_5bC-122" value="&lt;b&gt;&lt;font style=&quot;font-size: 20px;&quot;&gt;第二次循环结束：此时ans为&lt;/font&gt;&lt;/b&gt;" style="text;html=1;align=center;verticalAlign=middle;resizable=0;points=[];autosize=1;strokeColor=none;fillColor=none;" parent="1" vertex="1">
          <mxGeometry x="260" y="1289.75" width="280" height="40" as="geometry" />
        </mxCell>
        <mxCell id="DcCfHuT2zm9i7vaj_5bC-186" value="" style="edgeStyle=orthogonalEdgeStyle;rounded=0;orthogonalLoop=1;jettySize=auto;html=1;" parent="1" source="DcCfHuT2zm9i7vaj_5bC-126" target="DcCfHuT2zm9i7vaj_5bC-185" edge="1">
          <mxGeometry relative="1" as="geometry" />
        </mxCell>
        <mxCell id="DcCfHuT2zm9i7vaj_5bC-126" value="-1" style="ellipse;whiteSpace=wrap;html=1;" parent="1" vertex="1">
          <mxGeometry x="570" y="1280" width="90" height="59.5" as="geometry" />
        </mxCell>
        <mxCell id="DcCfHuT2zm9i7vaj_5bC-131" value="&lt;b&gt;&lt;font style=&quot;font-size: 28px;&quot;&gt;第一次循环：&lt;/font&gt;&lt;/b&gt;" style="text;html=1;align=center;verticalAlign=middle;resizable=0;points=[];autosize=1;strokeColor=none;fillColor=none;" parent="1" vertex="1">
          <mxGeometry x="260" y="299" width="190" height="50" as="geometry" />
        </mxCell>
        <mxCell id="DcCfHuT2zm9i7vaj_5bC-132" value="&lt;b&gt;&lt;font style=&quot;font-size: 28px;&quot;&gt;第二次循环：&lt;/font&gt;&lt;/b&gt;" style="text;html=1;align=center;verticalAlign=middle;resizable=0;points=[];autosize=1;strokeColor=none;fillColor=none;" parent="1" vertex="1">
          <mxGeometry x="269" y="830" width="190" height="50" as="geometry" />
        </mxCell>
        <mxCell id="DcCfHuT2zm9i7vaj_5bC-133" value="" style="edgeStyle=orthogonalEdgeStyle;rounded=0;orthogonalLoop=1;jettySize=auto;html=1;" parent="1" source="DcCfHuT2zm9i7vaj_5bC-134" target="DcCfHuT2zm9i7vaj_5bC-136" edge="1">
          <mxGeometry relative="1" as="geometry" />
        </mxCell>
        <mxCell id="DcCfHuT2zm9i7vaj_5bC-134" value="2" style="ellipse;whiteSpace=wrap;html=1;" parent="1" vertex="1">
          <mxGeometry x="461" y="830" width="90" height="60" as="geometry" />
        </mxCell>
        <mxCell id="DcCfHuT2zm9i7vaj_5bC-135" value="" style="edgeStyle=orthogonalEdgeStyle;rounded=0;orthogonalLoop=1;jettySize=auto;html=1;" parent="1" source="DcCfHuT2zm9i7vaj_5bC-136" target="DcCfHuT2zm9i7vaj_5bC-138" edge="1">
          <mxGeometry relative="1" as="geometry" />
        </mxCell>
        <mxCell id="DcCfHuT2zm9i7vaj_5bC-136" value="3" style="ellipse;whiteSpace=wrap;html=1;" parent="1" vertex="1">
          <mxGeometry x="621" y="830" width="90" height="60" as="geometry" />
        </mxCell>
        <mxCell id="DcCfHuT2zm9i7vaj_5bC-137" value="" style="edgeStyle=orthogonalEdgeStyle;rounded=0;orthogonalLoop=1;jettySize=auto;html=1;" parent="1" source="DcCfHuT2zm9i7vaj_5bC-138" target="DcCfHuT2zm9i7vaj_5bC-139" edge="1">
          <mxGeometry relative="1" as="geometry" />
        </mxCell>
        <mxCell id="DcCfHuT2zm9i7vaj_5bC-138" value="4" style="ellipse;whiteSpace=wrap;html=1;" parent="1" vertex="1">
          <mxGeometry x="771" y="830" width="80" height="60" as="geometry" />
        </mxCell>
        <mxCell id="DcCfHuT2zm9i7vaj_5bC-139" value="5" style="ellipse;whiteSpace=wrap;html=1;" parent="1" vertex="1">
          <mxGeometry x="921" y="830" width="80" height="60" as="geometry" />
        </mxCell>
        <mxCell id="DcCfHuT2zm9i7vaj_5bC-177" value="" style="edgeStyle=orthogonalEdgeStyle;rounded=0;orthogonalLoop=1;jettySize=auto;html=1;" parent="1" source="DcCfHuT2zm9i7vaj_5bC-175" target="DcCfHuT2zm9i7vaj_5bC-104" edge="1">
          <mxGeometry relative="1" as="geometry" />
        </mxCell>
        <mxCell id="DcCfHuT2zm9i7vaj_5bC-175" value="2" style="ellipse;whiteSpace=wrap;html=1;" parent="1" vertex="1">
          <mxGeometry x="680" y="1020" width="85" height="60" as="geometry" />
        </mxCell>
        <mxCell id="DcCfHuT2zm9i7vaj_5bC-180" value="" style="edgeStyle=orthogonalEdgeStyle;rounded=0;orthogonalLoop=1;jettySize=auto;html=1;" parent="1" source="DcCfHuT2zm9i7vaj_5bC-178" target="DcCfHuT2zm9i7vaj_5bC-84" edge="1">
          <mxGeometry relative="1" as="geometry" />
        </mxCell>
        <mxCell id="DcCfHuT2zm9i7vaj_5bC-178" value="2" style="ellipse;whiteSpace=wrap;html=1;" parent="1" vertex="1">
          <mxGeometry x="768.5" y="1100" width="85" height="60" as="geometry" />
        </mxCell>
        <mxCell id="DcCfHuT2zm9i7vaj_5bC-181" value="" style="edgeStyle=orthogonalEdgeStyle;rounded=0;orthogonalLoop=1;jettySize=auto;html=1;" parent="1" source="DcCfHuT2zm9i7vaj_5bC-182" edge="1">
          <mxGeometry relative="1" as="geometry">
            <mxPoint x="1030" y="1309.5" as="targetPoint" />
          </mxGeometry>
        </mxCell>
        <mxCell id="DcCfHuT2zm9i7vaj_5bC-182" value="1" style="ellipse;whiteSpace=wrap;html=1;" parent="1" vertex="1">
          <mxGeometry x="881" y="1279.5" width="90" height="60" as="geometry" />
        </mxCell>
        <mxCell id="DcCfHuT2zm9i7vaj_5bC-183" value="null" style="ellipse;whiteSpace=wrap;html=1;" parent="1" vertex="1">
          <mxGeometry x="1030" y="1279.5" width="90" height="60" as="geometry" />
        </mxCell>
        <mxCell id="DcCfHuT2zm9i7vaj_5bC-184" value="" style="edgeStyle=orthogonalEdgeStyle;rounded=0;orthogonalLoop=1;jettySize=auto;html=1;" parent="1" source="DcCfHuT2zm9i7vaj_5bC-185" target="DcCfHuT2zm9i7vaj_5bC-182" edge="1">
          <mxGeometry relative="1" as="geometry" />
        </mxCell>
        <mxCell id="DcCfHuT2zm9i7vaj_5bC-185" value="2" style="ellipse;whiteSpace=wrap;html=1;" parent="1" vertex="1">
          <mxGeometry x="730" y="1279.5" width="85" height="60" as="geometry" />
        </mxCell>
        <mxCell id="DcCfHuT2zm9i7vaj_5bC-187" value="" style="edgeStyle=orthogonalEdgeStyle;rounded=0;orthogonalLoop=1;jettySize=auto;html=1;" parent="1" source="DcCfHuT2zm9i7vaj_5bC-188" target="DcCfHuT2zm9i7vaj_5bC-190" edge="1">
          <mxGeometry relative="1" as="geometry" />
        </mxCell>
        <mxCell id="DcCfHuT2zm9i7vaj_5bC-188" value="3" style="ellipse;whiteSpace=wrap;html=1;" parent="1" vertex="1">
          <mxGeometry x="663" y="370" width="90" height="60" as="geometry" />
        </mxCell>
        <mxCell id="DcCfHuT2zm9i7vaj_5bC-189" value="" style="edgeStyle=orthogonalEdgeStyle;rounded=0;orthogonalLoop=1;jettySize=auto;html=1;" parent="1" source="DcCfHuT2zm9i7vaj_5bC-190" target="DcCfHuT2zm9i7vaj_5bC-191" edge="1">
          <mxGeometry relative="1" as="geometry" />
        </mxCell>
        <mxCell id="DcCfHuT2zm9i7vaj_5bC-190" value="4" style="ellipse;whiteSpace=wrap;html=1;" parent="1" vertex="1">
          <mxGeometry x="813" y="370" width="80" height="60" as="geometry" />
        </mxCell>
        <mxCell id="DcCfHuT2zm9i7vaj_5bC-191" value="5" style="ellipse;whiteSpace=wrap;html=1;" parent="1" vertex="1">
          <mxGeometry x="963" y="370" width="80" height="60" as="geometry" />
        </mxCell>
        <mxCell id="DcCfHuT2zm9i7vaj_5bC-228" value="" style="edgeStyle=orthogonalEdgeStyle;rounded=0;orthogonalLoop=1;jettySize=auto;html=1;" parent="1" source="DcCfHuT2zm9i7vaj_5bC-193" target="DcCfHuT2zm9i7vaj_5bC-226" edge="1">
          <mxGeometry relative="1" as="geometry" />
        </mxCell>
        <mxCell id="DcCfHuT2zm9i7vaj_5bC-193" value="1.next" style="text;html=1;align=center;verticalAlign=middle;resizable=0;points=[];autosize=1;strokeColor=none;fillColor=none;" parent="1" vertex="1">
          <mxGeometry x="378" y="385" width="60" height="30" as="geometry" />
        </mxCell>
        <mxCell id="DcCfHuT2zm9i7vaj_5bC-194" value="" style="edgeStyle=orthogonalEdgeStyle;rounded=0;orthogonalLoop=1;jettySize=auto;html=1;" parent="1" source="DcCfHuT2zm9i7vaj_5bC-195" edge="1">
          <mxGeometry relative="1" as="geometry">
            <mxPoint x="588" y="480" as="targetPoint" />
          </mxGeometry>
        </mxCell>
        <mxCell id="DcCfHuT2zm9i7vaj_5bC-195" value="2.cur,next=ans.next" style="text;html=1;align=center;verticalAlign=middle;resizable=0;points=[];autosize=1;strokeColor=none;fillColor=none;" parent="1" vertex="1">
          <mxGeometry x="378" y="465" width="130" height="30" as="geometry" />
        </mxCell>
        <mxCell id="DcCfHuT2zm9i7vaj_5bC-196" value="" style="edgeStyle=orthogonalEdgeStyle;rounded=0;orthogonalLoop=1;jettySize=auto;html=1;" parent="1" source="DcCfHuT2zm9i7vaj_5bC-197" target="DcCfHuT2zm9i7vaj_5bC-199" edge="1">
          <mxGeometry relative="1" as="geometry" />
        </mxCell>
        <mxCell id="DcCfHuT2zm9i7vaj_5bC-197" value="3.ans.next=cur" style="text;html=1;align=center;verticalAlign=middle;resizable=0;points=[];autosize=1;strokeColor=none;fillColor=none;" parent="1" vertex="1">
          <mxGeometry x="383" y="545" width="100" height="30" as="geometry" />
        </mxCell>
        <mxCell id="DcCfHuT2zm9i7vaj_5bC-199" value="-1" style="ellipse;whiteSpace=wrap;html=1;" parent="1" vertex="1">
          <mxGeometry x="528" y="530" width="90" height="59.5" as="geometry" />
        </mxCell>
        <mxCell id="DcCfHuT2zm9i7vaj_5bC-200" value="" style="edgeStyle=orthogonalEdgeStyle;rounded=0;orthogonalLoop=1;jettySize=auto;html=1;" parent="1" source="DcCfHuT2zm9i7vaj_5bC-201" target="DcCfHuT2zm9i7vaj_5bC-202" edge="1">
          <mxGeometry relative="1" as="geometry" />
        </mxCell>
        <mxCell id="DcCfHuT2zm9i7vaj_5bC-201" value="1" style="ellipse;whiteSpace=wrap;html=1;" parent="1" vertex="1">
          <mxGeometry x="673" y="529" width="100" height="60" as="geometry" />
        </mxCell>
        <mxCell id="DcCfHuT2zm9i7vaj_5bC-202" value="null" style="ellipse;whiteSpace=wrap;html=1;" parent="1" vertex="1">
          <mxGeometry x="826" y="529.5" width="90" height="60" as="geometry" />
        </mxCell>
        <mxCell id="DcCfHuT2zm9i7vaj_5bC-203" value="" style="edgeStyle=orthogonalEdgeStyle;rounded=0;orthogonalLoop=1;jettySize=auto;html=1;" parent="1" edge="1">
          <mxGeometry relative="1" as="geometry">
            <mxPoint x="448" y="645" as="sourcePoint" />
            <mxPoint x="528" y="645" as="targetPoint" />
          </mxGeometry>
        </mxCell>
        <mxCell id="DcCfHuT2zm9i7vaj_5bC-204" value="4.cur=next" style="text;html=1;align=center;verticalAlign=middle;resizable=0;points=[];autosize=1;strokeColor=none;fillColor=none;" parent="1" vertex="1">
          <mxGeometry x="383" y="630" width="80" height="30" as="geometry" />
        </mxCell>
        <mxCell id="DcCfHuT2zm9i7vaj_5bC-205" value="" style="edgeStyle=orthogonalEdgeStyle;rounded=0;orthogonalLoop=1;jettySize=auto;html=1;" parent="1" source="DcCfHuT2zm9i7vaj_5bC-206" target="DcCfHuT2zm9i7vaj_5bC-207" edge="1">
          <mxGeometry relative="1" as="geometry" />
        </mxCell>
        <mxCell id="DcCfHuT2zm9i7vaj_5bC-206" value="1" style="ellipse;whiteSpace=wrap;html=1;" parent="1" vertex="1">
          <mxGeometry x="590" y="450" width="90" height="60" as="geometry" />
        </mxCell>
        <mxCell id="DcCfHuT2zm9i7vaj_5bC-207" value="null" style="ellipse;whiteSpace=wrap;html=1;" parent="1" vertex="1">
          <mxGeometry x="739" y="450" width="90" height="60" as="geometry" />
        </mxCell>
        <mxCell id="DcCfHuT2zm9i7vaj_5bC-208" value="" style="edgeStyle=orthogonalEdgeStyle;rounded=0;orthogonalLoop=1;jettySize=auto;html=1;" parent="1" source="DcCfHuT2zm9i7vaj_5bC-209" target="DcCfHuT2zm9i7vaj_5bC-211" edge="1">
          <mxGeometry relative="1" as="geometry" />
        </mxCell>
        <mxCell id="DcCfHuT2zm9i7vaj_5bC-209" value="3" style="ellipse;whiteSpace=wrap;html=1;" parent="1" vertex="1">
          <mxGeometry x="701.5" y="615" width="90" height="60" as="geometry" />
        </mxCell>
        <mxCell id="DcCfHuT2zm9i7vaj_5bC-210" value="" style="edgeStyle=orthogonalEdgeStyle;rounded=0;orthogonalLoop=1;jettySize=auto;html=1;" parent="1" source="DcCfHuT2zm9i7vaj_5bC-211" target="DcCfHuT2zm9i7vaj_5bC-212" edge="1">
          <mxGeometry relative="1" as="geometry" />
        </mxCell>
        <mxCell id="DcCfHuT2zm9i7vaj_5bC-211" value="4" style="ellipse;whiteSpace=wrap;html=1;" parent="1" vertex="1">
          <mxGeometry x="851.5" y="615" width="80" height="60" as="geometry" />
        </mxCell>
        <mxCell id="DcCfHuT2zm9i7vaj_5bC-212" value="5" style="ellipse;whiteSpace=wrap;html=1;" parent="1" vertex="1">
          <mxGeometry x="1001.5" y="615" width="80" height="60" as="geometry" />
        </mxCell>
        <mxCell id="DcCfHuT2zm9i7vaj_5bC-213" value="" style="edgeStyle=orthogonalEdgeStyle;rounded=0;orthogonalLoop=1;jettySize=auto;html=1;" parent="1" target="DcCfHuT2zm9i7vaj_5bC-216" edge="1">
          <mxGeometry relative="1" as="geometry">
            <mxPoint x="663" y="740.05" as="sourcePoint" />
          </mxGeometry>
        </mxCell>
        <mxCell id="DcCfHuT2zm9i7vaj_5bC-214" value="&lt;b&gt;&lt;font style=&quot;font-size: 20px;&quot;&gt;第一次循环结束：此时ans为&lt;/font&gt;&lt;/b&gt;" style="text;html=1;align=center;verticalAlign=middle;resizable=0;points=[];autosize=1;strokeColor=none;fillColor=none;" parent="1" vertex="1">
          <mxGeometry x="383" y="719.75" width="280" height="40" as="geometry" />
        </mxCell>
        <mxCell id="DcCfHuT2zm9i7vaj_5bC-216" value="-1" style="ellipse;whiteSpace=wrap;html=1;" parent="1" vertex="1">
          <mxGeometry x="693" y="710.25" width="90" height="59.5" as="geometry" />
        </mxCell>
        <mxCell id="DcCfHuT2zm9i7vaj_5bC-219" value="" style="edgeStyle=orthogonalEdgeStyle;rounded=0;orthogonalLoop=1;jettySize=auto;html=1;" parent="1" target="DcCfHuT2zm9i7vaj_5bC-201" edge="1">
          <mxGeometry relative="1" as="geometry">
            <mxPoint x="616.5" y="559.5" as="sourcePoint" />
          </mxGeometry>
        </mxCell>
        <mxCell id="DcCfHuT2zm9i7vaj_5bC-221" value="" style="edgeStyle=orthogonalEdgeStyle;rounded=0;orthogonalLoop=1;jettySize=auto;html=1;" parent="1" source="DcCfHuT2zm9i7vaj_5bC-222" edge="1">
          <mxGeometry relative="1" as="geometry">
            <mxPoint x="998" y="739.75" as="targetPoint" />
          </mxGeometry>
        </mxCell>
        <mxCell id="DcCfHuT2zm9i7vaj_5bC-222" value="1" style="ellipse;whiteSpace=wrap;html=1;" parent="1" vertex="1">
          <mxGeometry x="849" y="709.75" width="90" height="60" as="geometry" />
        </mxCell>
        <mxCell id="DcCfHuT2zm9i7vaj_5bC-223" value="null" style="ellipse;whiteSpace=wrap;html=1;" parent="1" vertex="1">
          <mxGeometry x="998" y="709.75" width="90" height="60" as="geometry" />
        </mxCell>
        <mxCell id="DcCfHuT2zm9i7vaj_5bC-224" value="" style="edgeStyle=orthogonalEdgeStyle;rounded=0;orthogonalLoop=1;jettySize=auto;html=1;" parent="1" target="DcCfHuT2zm9i7vaj_5bC-222" edge="1">
          <mxGeometry relative="1" as="geometry">
            <mxPoint x="783" y="739.75" as="sourcePoint" />
          </mxGeometry>
        </mxCell>
        <mxCell id="DcCfHuT2zm9i7vaj_5bC-227" value="" style="edgeStyle=orthogonalEdgeStyle;rounded=0;orthogonalLoop=1;jettySize=auto;html=1;" parent="1" source="DcCfHuT2zm9i7vaj_5bC-226" target="DcCfHuT2zm9i7vaj_5bC-188" edge="1">
          <mxGeometry relative="1" as="geometry" />
        </mxCell>
        <mxCell id="DcCfHuT2zm9i7vaj_5bC-226" value="2" style="ellipse;whiteSpace=wrap;html=1;" parent="1" vertex="1">
          <mxGeometry x="498" y="370" width="90" height="60" as="geometry" />
        </mxCell>
        <mxCell id="DcCfHuT2zm9i7vaj_5bC-230" value="" style="edgeStyle=orthogonalEdgeStyle;rounded=0;orthogonalLoop=1;jettySize=auto;html=1;" parent="1" source="DcCfHuT2zm9i7vaj_5bC-229" target="DcCfHuT2zm9i7vaj_5bC-209" edge="1">
          <mxGeometry relative="1" as="geometry" />
        </mxCell>
        <mxCell id="DcCfHuT2zm9i7vaj_5bC-229" value="2" style="ellipse;whiteSpace=wrap;html=1;" parent="1" vertex="1">
          <mxGeometry x="529" y="615" width="90" height="60" as="geometry" />
        </mxCell>
      </root>
    </mxGraphModel>
  </diagram>
  <diagram id="kpQgCUX6lXpqwIWh6ie5" name="第 2 页">
    <mxGraphModel dx="1032" dy="670" grid="1" gridSize="10" guides="1" tooltips="1" connect="1" arrows="1" fold="1" page="1" pageScale="1" pageWidth="827" pageHeight="1169" math="0" shadow="0">
      <root>
        <mxCell id="0" />
        <mxCell id="1" parent="0" />
        <mxCell id="A5BiCIOGUq9FeucR0aTY-1" style="edgeStyle=orthogonalEdgeStyle;rounded=0;orthogonalLoop=1;jettySize=auto;html=1;entryX=0.5;entryY=0;entryDx=0;entryDy=0;" edge="1" parent="1">
          <mxGeometry relative="1" as="geometry">
            <mxPoint x="520" y="140" as="sourcePoint" />
            <mxPoint x="520" y="280" as="targetPoint" />
          </mxGeometry>
        </mxCell>
        <mxCell id="A5BiCIOGUq9FeucR0aTY-2" value="1、根据clinetID请求授权码" style="text;html=1;strokeColor=none;fillColor=none;align=center;verticalAlign=middle;whiteSpace=wrap;rounded=0;" vertex="1" parent="1">
          <mxGeometry x="520" y="200" width="130" height="30" as="geometry" />
        </mxCell>
        <mxCell id="A5BiCIOGUq9FeucR0aTY-3" value="server" style="rounded=0;whiteSpace=wrap;html=1;direction=south;" vertex="1" parent="1">
          <mxGeometry x="110" y="280" width="110" height="330" as="geometry" />
        </mxCell>
        <mxCell id="A5BiCIOGUq9FeucR0aTY-4" value="三方授权server" style="rounded=0;whiteSpace=wrap;html=1;direction=south;" vertex="1" parent="1">
          <mxGeometry x="490" y="280" width="100" height="340" as="geometry" />
        </mxCell>
        <mxCell id="A5BiCIOGUq9FeucR0aTY-5" value="" style="endArrow=classic;html=1;rounded=0;exitX=0.103;exitY=1;exitDx=0;exitDy=0;exitPerimeter=0;entryX=0.112;entryY=-0.018;entryDx=0;entryDy=0;entryPerimeter=0;" edge="1" parent="1" source="A5BiCIOGUq9FeucR0aTY-4" target="A5BiCIOGUq9FeucR0aTY-3">
          <mxGeometry width="50" height="50" relative="1" as="geometry">
            <mxPoint x="480" y="321" as="sourcePoint" />
            <mxPoint x="230" y="320" as="targetPoint" />
          </mxGeometry>
        </mxCell>
        <mxCell id="A5BiCIOGUq9FeucR0aTY-6" value="2、返回code" style="text;html=1;strokeColor=none;fillColor=none;align=center;verticalAlign=middle;whiteSpace=wrap;rounded=0;" vertex="1" parent="1">
          <mxGeometry x="284" y="280" width="130" height="30" as="geometry" />
        </mxCell>
        <mxCell id="A5BiCIOGUq9FeucR0aTY-7" value="" style="endArrow=classic;html=1;rounded=0;entryX=0.276;entryY=1.01;entryDx=0;entryDy=0;entryPerimeter=0;" edge="1" parent="1" target="A5BiCIOGUq9FeucR0aTY-4">
          <mxGeometry width="50" height="50" relative="1" as="geometry">
            <mxPoint x="230" y="374" as="sourcePoint" />
            <mxPoint x="340" y="350" as="targetPoint" />
            <Array as="points" />
          </mxGeometry>
        </mxCell>
        <mxCell id="A5BiCIOGUq9FeucR0aTY-8" value="3、根据code、secretKey、clientId，获取accessToken" style="text;html=1;strokeColor=none;fillColor=none;align=center;verticalAlign=middle;whiteSpace=wrap;rounded=0;" vertex="1" parent="1">
          <mxGeometry x="230" y="340" width="240" height="30" as="geometry" />
        </mxCell>
        <mxCell id="A5BiCIOGUq9FeucR0aTY-9" value="" style="endArrow=classic;html=1;rounded=0;entryX=0.45;entryY=-0.023;entryDx=0;entryDy=0;entryPerimeter=0;" edge="1" parent="1" target="A5BiCIOGUq9FeucR0aTY-3">
          <mxGeometry width="50" height="50" relative="1" as="geometry">
            <mxPoint x="470" y="430" as="sourcePoint" />
            <mxPoint x="219" y="421" as="targetPoint" />
          </mxGeometry>
        </mxCell>
        <mxCell id="A5BiCIOGUq9FeucR0aTY-10" value="4、返回accessToken、expireTime等" style="text;html=1;strokeColor=none;fillColor=none;align=center;verticalAlign=middle;whiteSpace=wrap;rounded=0;" vertex="1" parent="1">
          <mxGeometry x="240" y="390" width="240" height="30" as="geometry" />
        </mxCell>
        <mxCell id="A5BiCIOGUq9FeucR0aTY-11" value="" style="endArrow=classic;html=1;rounded=0;exitX=0.882;exitY=0;exitDx=0;exitDy=0;exitPerimeter=0;entryX=0.65;entryY=1.05;entryDx=0;entryDy=0;entryPerimeter=0;" edge="1" parent="1" source="A5BiCIOGUq9FeucR0aTY-3" target="A5BiCIOGUq9FeucR0aTY-4">
          <mxGeometry width="50" height="50" relative="1" as="geometry">
            <mxPoint x="390" y="370" as="sourcePoint" />
            <mxPoint x="470" y="578" as="targetPoint" />
            <Array as="points">
              <mxPoint x="220" y="500" />
            </Array>
          </mxGeometry>
        </mxCell>
        <mxCell id="A5BiCIOGUq9FeucR0aTY-12" value="5、根据accessToken获取用户信息" style="text;html=1;strokeColor=none;fillColor=none;align=center;verticalAlign=middle;whiteSpace=wrap;rounded=0;" vertex="1" parent="1">
          <mxGeometry x="250" y="450" width="200" height="30" as="geometry" />
        </mxCell>
        <mxCell id="A5BiCIOGUq9FeucR0aTY-13" value="" style="endArrow=classic;html=1;rounded=0;exitX=0.797;exitY=1.035;exitDx=0;exitDy=0;exitPerimeter=0;" edge="1" parent="1" source="A5BiCIOGUq9FeucR0aTY-4">
          <mxGeometry width="50" height="50" relative="1" as="geometry">
            <mxPoint x="220" y="560" as="sourcePoint" />
            <mxPoint x="220" y="550" as="targetPoint" />
          </mxGeometry>
        </mxCell>
        <mxCell id="A5BiCIOGUq9FeucR0aTY-14" value="6、返回用户信息，并解析" style="text;html=1;strokeColor=none;fillColor=none;align=center;verticalAlign=middle;whiteSpace=wrap;rounded=0;" vertex="1" parent="1">
          <mxGeometry x="270" y="520" width="160" height="30" as="geometry" />
        </mxCell>
        <mxCell id="A5BiCIOGUq9FeucR0aTY-15" value="client" style="rounded=1;whiteSpace=wrap;html=1;" vertex="1" parent="1">
          <mxGeometry x="110" y="110" width="480" height="60" as="geometry" />
        </mxCell>
        <mxCell id="A5BiCIOGUq9FeucR0aTY-16" value="" style="endArrow=classic;html=1;rounded=0;entryX=0.107;entryY=1.05;entryDx=0;entryDy=0;entryPerimeter=0;" edge="1" parent="1" target="A5BiCIOGUq9FeucR0aTY-15">
          <mxGeometry width="50" height="50" relative="1" as="geometry">
            <mxPoint x="161" y="270" as="sourcePoint" />
            <mxPoint x="440" y="320" as="targetPoint" />
          </mxGeometry>
        </mxCell>
        <mxCell id="A5BiCIOGUq9FeucR0aTY-17" value="7、重定向到client(页面)" style="text;html=1;strokeColor=none;fillColor=none;align=center;verticalAlign=middle;whiteSpace=wrap;rounded=0;" vertex="1" parent="1">
          <mxGeometry x="160" y="190" width="160" height="30" as="geometry" />
        </mxCell>
        <mxCell id="A5BiCIOGUq9FeucR0aTY-18" value="&lt;font style=&quot;font-size: 14px;&quot;&gt;注：返回用户信息时没有sessionID，后端生成了一个session，由spring-session-data-redis保存到redis，重定向到前端页面，获取用户信息时创建了新的会话（生成了一个新的sessionID）&lt;/font&gt;" style="text;html=1;strokeColor=none;fillColor=none;align=center;verticalAlign=middle;whiteSpace=wrap;rounded=0;" vertex="1" parent="1">
          <mxGeometry x="175" y="620" width="370" height="80" as="geometry" />
        </mxCell>
      </root>
    </mxGraphModel>
  </diagram>
  <diagram id="fGosk3KgpL65g6JV5O4c" name="第 3 页">
    <mxGraphModel dx="1859" dy="670" grid="1" gridSize="10" guides="1" tooltips="1" connect="1" arrows="1" fold="1" page="1" pageScale="1" pageWidth="827" pageHeight="1169" math="0" shadow="0">
      <root>
        <mxCell id="0" />
        <mxCell id="1" parent="0" />
        <mxCell id="BKcghfGbCYDGAL3umKEy-4" value="" style="edgeStyle=orthogonalEdgeStyle;rounded=0;orthogonalLoop=1;jettySize=auto;html=1;" edge="1" parent="1" source="BKcghfGbCYDGAL3umKEy-1" target="BKcghfGbCYDGAL3umKEy-3">
          <mxGeometry relative="1" as="geometry" />
        </mxCell>
        <mxCell id="BKcghfGbCYDGAL3umKEy-1" value="1" style="ellipse;whiteSpace=wrap;html=1;" vertex="1" parent="1">
          <mxGeometry x="140" y="160" width="80" height="40" as="geometry" />
        </mxCell>
        <mxCell id="BKcghfGbCYDGAL3umKEy-2" value="&lt;font style=&quot;font-size: 28px;&quot;&gt;直接操作链表进行反转&lt;/font&gt;" style="text;html=1;align=center;verticalAlign=middle;resizable=0;points=[];autosize=1;strokeColor=none;fillColor=none;" vertex="1" parent="1">
          <mxGeometry x="-40" y="48" width="300" height="50" as="geometry" />
        </mxCell>
        <mxCell id="BKcghfGbCYDGAL3umKEy-6" value="" style="edgeStyle=orthogonalEdgeStyle;rounded=0;orthogonalLoop=1;jettySize=auto;html=1;" edge="1" parent="1" source="BKcghfGbCYDGAL3umKEy-3" target="BKcghfGbCYDGAL3umKEy-5">
          <mxGeometry relative="1" as="geometry" />
        </mxCell>
        <mxCell id="BKcghfGbCYDGAL3umKEy-3" value="2" style="ellipse;whiteSpace=wrap;html=1;" vertex="1" parent="1">
          <mxGeometry x="260" y="160" width="80" height="40" as="geometry" />
        </mxCell>
        <mxCell id="BKcghfGbCYDGAL3umKEy-8" value="" style="edgeStyle=orthogonalEdgeStyle;rounded=0;orthogonalLoop=1;jettySize=auto;html=1;" edge="1" parent="1" source="BKcghfGbCYDGAL3umKEy-5" target="BKcghfGbCYDGAL3umKEy-7">
          <mxGeometry relative="1" as="geometry" />
        </mxCell>
        <mxCell id="BKcghfGbCYDGAL3umKEy-5" value="3" style="ellipse;whiteSpace=wrap;html=1;" vertex="1" parent="1">
          <mxGeometry x="380" y="160" width="80" height="40" as="geometry" />
        </mxCell>
        <mxCell id="BKcghfGbCYDGAL3umKEy-10" value="" style="edgeStyle=orthogonalEdgeStyle;rounded=0;orthogonalLoop=1;jettySize=auto;html=1;" edge="1" parent="1" source="BKcghfGbCYDGAL3umKEy-7" target="BKcghfGbCYDGAL3umKEy-9">
          <mxGeometry relative="1" as="geometry" />
        </mxCell>
        <mxCell id="BKcghfGbCYDGAL3umKEy-7" value="4" style="ellipse;whiteSpace=wrap;html=1;" vertex="1" parent="1">
          <mxGeometry x="510" y="160" width="80" height="40" as="geometry" />
        </mxCell>
        <mxCell id="BKcghfGbCYDGAL3umKEy-9" value="5" style="ellipse;whiteSpace=wrap;html=1;" vertex="1" parent="1">
          <mxGeometry x="630" y="160" width="80" height="40" as="geometry" />
        </mxCell>
        <mxCell id="BKcghfGbCYDGAL3umKEy-11" value="操作步骤：&lt;br&gt;1.next=cur.next，临时保存下一个节点&lt;br&gt;2.cur.next=pre，让当前节点指向pre&lt;br&gt;3.pre=cur，pre保存的是反转后的链表&lt;br&gt;4.cur=next，cur保存当前遍历的链表" style="text;html=1;align=center;verticalAlign=middle;resizable=0;points=[];autosize=1;strokeColor=none;fillColor=none;" vertex="1" parent="1">
          <mxGeometry x="305" y="48" width="230" height="90" as="geometry" />
        </mxCell>
        <mxCell id="BKcghfGbCYDGAL3umKEy-13" value="" style="edgeStyle=orthogonalEdgeStyle;rounded=0;orthogonalLoop=1;jettySize=auto;html=1;" edge="1" parent="1" source="BKcghfGbCYDGAL3umKEy-14" target="BKcghfGbCYDGAL3umKEy-16">
          <mxGeometry relative="1" as="geometry" />
        </mxCell>
        <mxCell id="BKcghfGbCYDGAL3umKEy-14" value="1" style="ellipse;whiteSpace=wrap;html=1;" vertex="1" parent="1">
          <mxGeometry x="135" y="270" width="80" height="40" as="geometry" />
        </mxCell>
        <mxCell id="BKcghfGbCYDGAL3umKEy-15" value="" style="edgeStyle=orthogonalEdgeStyle;rounded=0;orthogonalLoop=1;jettySize=auto;html=1;" edge="1" parent="1" source="BKcghfGbCYDGAL3umKEy-16" target="BKcghfGbCYDGAL3umKEy-18">
          <mxGeometry relative="1" as="geometry" />
        </mxCell>
        <mxCell id="BKcghfGbCYDGAL3umKEy-16" value="2" style="ellipse;whiteSpace=wrap;html=1;" vertex="1" parent="1">
          <mxGeometry x="255" y="270" width="80" height="40" as="geometry" />
        </mxCell>
        <mxCell id="BKcghfGbCYDGAL3umKEy-17" value="" style="edgeStyle=orthogonalEdgeStyle;rounded=0;orthogonalLoop=1;jettySize=auto;html=1;" edge="1" parent="1" source="BKcghfGbCYDGAL3umKEy-18" target="BKcghfGbCYDGAL3umKEy-20">
          <mxGeometry relative="1" as="geometry" />
        </mxCell>
        <mxCell id="BKcghfGbCYDGAL3umKEy-18" value="3" style="ellipse;whiteSpace=wrap;html=1;" vertex="1" parent="1">
          <mxGeometry x="375" y="270" width="80" height="40" as="geometry" />
        </mxCell>
        <mxCell id="BKcghfGbCYDGAL3umKEy-19" value="" style="edgeStyle=orthogonalEdgeStyle;rounded=0;orthogonalLoop=1;jettySize=auto;html=1;" edge="1" parent="1" source="BKcghfGbCYDGAL3umKEy-20" target="BKcghfGbCYDGAL3umKEy-21">
          <mxGeometry relative="1" as="geometry" />
        </mxCell>
        <mxCell id="BKcghfGbCYDGAL3umKEy-20" value="4" style="ellipse;whiteSpace=wrap;html=1;" vertex="1" parent="1">
          <mxGeometry x="505" y="270" width="80" height="40" as="geometry" />
        </mxCell>
        <mxCell id="BKcghfGbCYDGAL3umKEy-21" value="5" style="ellipse;whiteSpace=wrap;html=1;" vertex="1" parent="1">
          <mxGeometry x="625" y="270" width="80" height="40" as="geometry" />
        </mxCell>
        <mxCell id="BKcghfGbCYDGAL3umKEy-22" value="null" style="ellipse;whiteSpace=wrap;html=1;" vertex="1" parent="1">
          <mxGeometry x="790" y="160" width="80" height="40" as="geometry" />
        </mxCell>
        <mxCell id="BKcghfGbCYDGAL3umKEy-25" value="" style="edgeStyle=orthogonalEdgeStyle;rounded=0;orthogonalLoop=1;jettySize=auto;html=1;" edge="1" parent="1" source="BKcghfGbCYDGAL3umKEy-24" target="BKcghfGbCYDGAL3umKEy-22">
          <mxGeometry relative="1" as="geometry" />
        </mxCell>
        <mxCell id="BKcghfGbCYDGAL3umKEy-24" value="初始状态：pre指针" style="text;html=1;align=center;verticalAlign=middle;resizable=0;points=[];autosize=1;strokeColor=none;fillColor=none;" vertex="1" parent="1">
          <mxGeometry x="770" y="108" width="120" height="30" as="geometry" />
        </mxCell>
        <mxCell id="BKcghfGbCYDGAL3umKEy-27" value="" style="edgeStyle=orthogonalEdgeStyle;rounded=0;orthogonalLoop=1;jettySize=auto;html=1;" edge="1" parent="1" source="BKcghfGbCYDGAL3umKEy-26" target="BKcghfGbCYDGAL3umKEy-1">
          <mxGeometry relative="1" as="geometry" />
        </mxCell>
        <mxCell id="BKcghfGbCYDGAL3umKEy-26" value="当前节点cur指针" style="text;html=1;align=center;verticalAlign=middle;resizable=0;points=[];autosize=1;strokeColor=none;fillColor=none;" vertex="1" parent="1">
          <mxGeometry x="125" y="108" width="110" height="30" as="geometry" />
        </mxCell>
        <mxCell id="BKcghfGbCYDGAL3umKEy-28" value="&lt;font style=&quot;font-size: 20px;&quot;&gt;第一次循环&lt;/font&gt;" style="text;html=1;align=center;verticalAlign=middle;resizable=0;points=[];autosize=1;strokeColor=none;fillColor=none;" vertex="1" parent="1">
          <mxGeometry x="-10" y="270" width="120" height="40" as="geometry" />
        </mxCell>
        <mxCell id="BKcghfGbCYDGAL3umKEy-37" value="" style="edgeStyle=orthogonalEdgeStyle;rounded=0;orthogonalLoop=1;jettySize=auto;html=1;" edge="1" parent="1" source="BKcghfGbCYDGAL3umKEy-29" target="BKcghfGbCYDGAL3umKEy-31">
          <mxGeometry relative="1" as="geometry" />
        </mxCell>
        <mxCell id="BKcghfGbCYDGAL3umKEy-29" value="1.next=cur.next" style="text;html=1;align=center;verticalAlign=middle;resizable=0;points=[];autosize=1;strokeColor=none;fillColor=none;" vertex="1" parent="1">
          <mxGeometry x="25" y="343" width="110" height="30" as="geometry" />
        </mxCell>
        <mxCell id="BKcghfGbCYDGAL3umKEy-30" value="" style="edgeStyle=orthogonalEdgeStyle;rounded=0;orthogonalLoop=1;jettySize=auto;html=1;" edge="1" parent="1" source="BKcghfGbCYDGAL3umKEy-31" target="BKcghfGbCYDGAL3umKEy-33">
          <mxGeometry relative="1" as="geometry" />
        </mxCell>
        <mxCell id="BKcghfGbCYDGAL3umKEy-31" value="2" style="ellipse;whiteSpace=wrap;html=1;" vertex="1" parent="1">
          <mxGeometry x="180" y="338" width="80" height="40" as="geometry" />
        </mxCell>
        <mxCell id="BKcghfGbCYDGAL3umKEy-32" value="" style="edgeStyle=orthogonalEdgeStyle;rounded=0;orthogonalLoop=1;jettySize=auto;html=1;" edge="1" parent="1" source="BKcghfGbCYDGAL3umKEy-33" target="BKcghfGbCYDGAL3umKEy-35">
          <mxGeometry relative="1" as="geometry" />
        </mxCell>
        <mxCell id="BKcghfGbCYDGAL3umKEy-33" value="3" style="ellipse;whiteSpace=wrap;html=1;" vertex="1" parent="1">
          <mxGeometry x="300" y="338" width="80" height="40" as="geometry" />
        </mxCell>
        <mxCell id="BKcghfGbCYDGAL3umKEy-34" value="" style="edgeStyle=orthogonalEdgeStyle;rounded=0;orthogonalLoop=1;jettySize=auto;html=1;" edge="1" parent="1" source="BKcghfGbCYDGAL3umKEy-35" target="BKcghfGbCYDGAL3umKEy-36">
          <mxGeometry relative="1" as="geometry" />
        </mxCell>
        <mxCell id="BKcghfGbCYDGAL3umKEy-35" value="4" style="ellipse;whiteSpace=wrap;html=1;" vertex="1" parent="1">
          <mxGeometry x="430" y="338" width="80" height="40" as="geometry" />
        </mxCell>
        <mxCell id="BKcghfGbCYDGAL3umKEy-36" value="5" style="ellipse;whiteSpace=wrap;html=1;" vertex="1" parent="1">
          <mxGeometry x="550" y="338" width="80" height="40" as="geometry" />
        </mxCell>
        <mxCell id="BKcghfGbCYDGAL3umKEy-42" value="" style="edgeStyle=orthogonalEdgeStyle;rounded=0;orthogonalLoop=1;jettySize=auto;html=1;" edge="1" parent="1" source="BKcghfGbCYDGAL3umKEy-38" target="BKcghfGbCYDGAL3umKEy-39">
          <mxGeometry relative="1" as="geometry" />
        </mxCell>
        <mxCell id="BKcghfGbCYDGAL3umKEy-38" value="2.cur.next=pre" style="text;html=1;align=center;verticalAlign=middle;resizable=0;points=[];autosize=1;strokeColor=none;fillColor=none;" vertex="1" parent="1">
          <mxGeometry x="55" y="403" width="100" height="30" as="geometry" />
        </mxCell>
        <mxCell id="BKcghfGbCYDGAL3umKEy-41" value="" style="edgeStyle=orthogonalEdgeStyle;rounded=0;orthogonalLoop=1;jettySize=auto;html=1;" edge="1" parent="1" source="BKcghfGbCYDGAL3umKEy-39" target="BKcghfGbCYDGAL3umKEy-40">
          <mxGeometry relative="1" as="geometry" />
        </mxCell>
        <mxCell id="BKcghfGbCYDGAL3umKEy-39" value="1" style="ellipse;whiteSpace=wrap;html=1;" vertex="1" parent="1">
          <mxGeometry x="190" y="398" width="80" height="40" as="geometry" />
        </mxCell>
        <mxCell id="BKcghfGbCYDGAL3umKEy-40" value="null" style="ellipse;whiteSpace=wrap;html=1;" vertex="1" parent="1">
          <mxGeometry x="300" y="398" width="80" height="40" as="geometry" />
        </mxCell>
        <mxCell id="BKcghfGbCYDGAL3umKEy-51" value="" style="edgeStyle=orthogonalEdgeStyle;rounded=0;orthogonalLoop=1;jettySize=auto;html=1;" edge="1" parent="1" source="BKcghfGbCYDGAL3umKEy-43" target="BKcghfGbCYDGAL3umKEy-49">
          <mxGeometry relative="1" as="geometry" />
        </mxCell>
        <mxCell id="BKcghfGbCYDGAL3umKEy-43" value="3.pre=cur&lt;br&gt;这个步骤很重要：保存反转后的链表&lt;br&gt;" style="text;html=1;align=center;verticalAlign=middle;resizable=0;points=[];autosize=1;strokeColor=none;fillColor=none;" vertex="1" parent="1">
          <mxGeometry x="-70" y="453" width="220" height="40" as="geometry" />
        </mxCell>
        <mxCell id="BKcghfGbCYDGAL3umKEy-48" value="" style="edgeStyle=orthogonalEdgeStyle;rounded=0;orthogonalLoop=1;jettySize=auto;html=1;" edge="1" parent="1" source="BKcghfGbCYDGAL3umKEy-49" target="BKcghfGbCYDGAL3umKEy-50">
          <mxGeometry relative="1" as="geometry" />
        </mxCell>
        <mxCell id="BKcghfGbCYDGAL3umKEy-49" value="1" style="ellipse;whiteSpace=wrap;html=1;" vertex="1" parent="1">
          <mxGeometry x="190" y="453" width="80" height="40" as="geometry" />
        </mxCell>
        <mxCell id="BKcghfGbCYDGAL3umKEy-50" value="null" style="ellipse;whiteSpace=wrap;html=1;" vertex="1" parent="1">
          <mxGeometry x="300" y="453" width="80" height="40" as="geometry" />
        </mxCell>
        <mxCell id="BKcghfGbCYDGAL3umKEy-60" value="" style="edgeStyle=orthogonalEdgeStyle;rounded=0;orthogonalLoop=1;jettySize=auto;html=1;" edge="1" parent="1" source="BKcghfGbCYDGAL3umKEy-52" target="BKcghfGbCYDGAL3umKEy-54">
          <mxGeometry relative="1" as="geometry" />
        </mxCell>
        <mxCell id="BKcghfGbCYDGAL3umKEy-52" value="4.cur=next&lt;br&gt;再让当前节点指向下一个节点" style="text;html=1;align=center;verticalAlign=middle;resizable=0;points=[];autosize=1;strokeColor=none;fillColor=none;" vertex="1" parent="1">
          <mxGeometry x="-50" y="508" width="180" height="40" as="geometry" />
        </mxCell>
        <mxCell id="BKcghfGbCYDGAL3umKEy-53" value="" style="edgeStyle=orthogonalEdgeStyle;rounded=0;orthogonalLoop=1;jettySize=auto;html=1;" edge="1" parent="1" source="BKcghfGbCYDGAL3umKEy-54" target="BKcghfGbCYDGAL3umKEy-56">
          <mxGeometry relative="1" as="geometry" />
        </mxCell>
        <mxCell id="BKcghfGbCYDGAL3umKEy-54" value="2" style="ellipse;whiteSpace=wrap;html=1;" vertex="1" parent="1">
          <mxGeometry x="160" y="508" width="80" height="40" as="geometry" />
        </mxCell>
        <mxCell id="BKcghfGbCYDGAL3umKEy-55" value="" style="edgeStyle=orthogonalEdgeStyle;rounded=0;orthogonalLoop=1;jettySize=auto;html=1;" edge="1" parent="1" source="BKcghfGbCYDGAL3umKEy-56" target="BKcghfGbCYDGAL3umKEy-58">
          <mxGeometry relative="1" as="geometry" />
        </mxCell>
        <mxCell id="BKcghfGbCYDGAL3umKEy-56" value="3" style="ellipse;whiteSpace=wrap;html=1;" vertex="1" parent="1">
          <mxGeometry x="280" y="508" width="80" height="40" as="geometry" />
        </mxCell>
        <mxCell id="BKcghfGbCYDGAL3umKEy-57" value="" style="edgeStyle=orthogonalEdgeStyle;rounded=0;orthogonalLoop=1;jettySize=auto;html=1;" edge="1" parent="1" source="BKcghfGbCYDGAL3umKEy-58" target="BKcghfGbCYDGAL3umKEy-59">
          <mxGeometry relative="1" as="geometry" />
        </mxCell>
        <mxCell id="BKcghfGbCYDGAL3umKEy-58" value="4" style="ellipse;whiteSpace=wrap;html=1;" vertex="1" parent="1">
          <mxGeometry x="410" y="508" width="80" height="40" as="geometry" />
        </mxCell>
        <mxCell id="BKcghfGbCYDGAL3umKEy-59" value="5" style="ellipse;whiteSpace=wrap;html=1;" vertex="1" parent="1">
          <mxGeometry x="530" y="508" width="80" height="40" as="geometry" />
        </mxCell>
        <mxCell id="BKcghfGbCYDGAL3umKEy-63" value="" style="edgeStyle=orthogonalEdgeStyle;rounded=0;orthogonalLoop=1;jettySize=auto;html=1;" edge="1" parent="1" source="BKcghfGbCYDGAL3umKEy-64" target="BKcghfGbCYDGAL3umKEy-66">
          <mxGeometry relative="1" as="geometry" />
        </mxCell>
        <mxCell id="BKcghfGbCYDGAL3umKEy-64" value="2" style="ellipse;whiteSpace=wrap;html=1;" vertex="1" parent="1">
          <mxGeometry x="146.25" y="620" width="80" height="40" as="geometry" />
        </mxCell>
        <mxCell id="BKcghfGbCYDGAL3umKEy-65" value="" style="edgeStyle=orthogonalEdgeStyle;rounded=0;orthogonalLoop=1;jettySize=auto;html=1;" edge="1" parent="1" source="BKcghfGbCYDGAL3umKEy-66" target="BKcghfGbCYDGAL3umKEy-68">
          <mxGeometry relative="1" as="geometry" />
        </mxCell>
        <mxCell id="BKcghfGbCYDGAL3umKEy-66" value="3" style="ellipse;whiteSpace=wrap;html=1;" vertex="1" parent="1">
          <mxGeometry x="273.75" y="620" width="80" height="40" as="geometry" />
        </mxCell>
        <mxCell id="BKcghfGbCYDGAL3umKEy-67" value="" style="edgeStyle=orthogonalEdgeStyle;rounded=0;orthogonalLoop=1;jettySize=auto;html=1;" edge="1" parent="1" source="BKcghfGbCYDGAL3umKEy-68" target="BKcghfGbCYDGAL3umKEy-69">
          <mxGeometry relative="1" as="geometry" />
        </mxCell>
        <mxCell id="BKcghfGbCYDGAL3umKEy-68" value="4" style="ellipse;whiteSpace=wrap;html=1;" vertex="1" parent="1">
          <mxGeometry x="403.75" y="620" width="80" height="40" as="geometry" />
        </mxCell>
        <mxCell id="BKcghfGbCYDGAL3umKEy-69" value="5" style="ellipse;whiteSpace=wrap;html=1;" vertex="1" parent="1">
          <mxGeometry x="523.75" y="620" width="80" height="40" as="geometry" />
        </mxCell>
        <mxCell id="BKcghfGbCYDGAL3umKEy-70" value="&lt;font style=&quot;font-size: 20px;&quot;&gt;第二次循环&lt;/font&gt;" style="text;html=1;align=center;verticalAlign=middle;resizable=0;points=[];autosize=1;strokeColor=none;fillColor=none;" vertex="1" parent="1">
          <mxGeometry y="620" width="120" height="40" as="geometry" />
        </mxCell>
        <mxCell id="BKcghfGbCYDGAL3umKEy-100" style="edgeStyle=orthogonalEdgeStyle;rounded=0;orthogonalLoop=1;jettySize=auto;html=1;entryX=0;entryY=0.5;entryDx=0;entryDy=0;" edge="1" parent="1" source="BKcghfGbCYDGAL3umKEy-72" target="BKcghfGbCYDGAL3umKEy-76">
          <mxGeometry relative="1" as="geometry" />
        </mxCell>
        <mxCell id="BKcghfGbCYDGAL3umKEy-72" value="1.next=cur.next" style="text;html=1;align=center;verticalAlign=middle;resizable=0;points=[];autosize=1;strokeColor=none;fillColor=none;" vertex="1" parent="1">
          <mxGeometry x="47.5" y="703" width="110" height="30" as="geometry" />
        </mxCell>
        <mxCell id="BKcghfGbCYDGAL3umKEy-75" value="" style="edgeStyle=orthogonalEdgeStyle;rounded=0;orthogonalLoop=1;jettySize=auto;html=1;" edge="1" parent="1" source="BKcghfGbCYDGAL3umKEy-76" target="BKcghfGbCYDGAL3umKEy-78">
          <mxGeometry relative="1" as="geometry" />
        </mxCell>
        <mxCell id="BKcghfGbCYDGAL3umKEy-76" value="3" style="ellipse;whiteSpace=wrap;html=1;" vertex="1" parent="1">
          <mxGeometry x="197.5" y="698" width="80" height="40" as="geometry" />
        </mxCell>
        <mxCell id="BKcghfGbCYDGAL3umKEy-77" value="" style="edgeStyle=orthogonalEdgeStyle;rounded=0;orthogonalLoop=1;jettySize=auto;html=1;" edge="1" parent="1" source="BKcghfGbCYDGAL3umKEy-78" target="BKcghfGbCYDGAL3umKEy-79">
          <mxGeometry relative="1" as="geometry" />
        </mxCell>
        <mxCell id="BKcghfGbCYDGAL3umKEy-78" value="4" style="ellipse;whiteSpace=wrap;html=1;" vertex="1" parent="1">
          <mxGeometry x="327.5" y="698" width="80" height="40" as="geometry" />
        </mxCell>
        <mxCell id="BKcghfGbCYDGAL3umKEy-79" value="5" style="ellipse;whiteSpace=wrap;html=1;" vertex="1" parent="1">
          <mxGeometry x="447.5" y="698" width="80" height="40" as="geometry" />
        </mxCell>
        <mxCell id="BKcghfGbCYDGAL3umKEy-102" value="" style="edgeStyle=orthogonalEdgeStyle;rounded=0;orthogonalLoop=1;jettySize=auto;html=1;" edge="1" parent="1" source="BKcghfGbCYDGAL3umKEy-81" target="BKcghfGbCYDGAL3umKEy-101">
          <mxGeometry relative="1" as="geometry" />
        </mxCell>
        <mxCell id="BKcghfGbCYDGAL3umKEy-81" value="2.cur.next=pre" style="text;html=1;align=center;verticalAlign=middle;resizable=0;points=[];autosize=1;strokeColor=none;fillColor=none;" vertex="1" parent="1">
          <mxGeometry x="77.5" y="763" width="100" height="30" as="geometry" />
        </mxCell>
        <mxCell id="BKcghfGbCYDGAL3umKEy-82" value="" style="edgeStyle=orthogonalEdgeStyle;rounded=0;orthogonalLoop=1;jettySize=auto;html=1;" edge="1" parent="1" source="BKcghfGbCYDGAL3umKEy-83" target="BKcghfGbCYDGAL3umKEy-84">
          <mxGeometry relative="1" as="geometry" />
        </mxCell>
        <mxCell id="BKcghfGbCYDGAL3umKEy-83" value="1" style="ellipse;whiteSpace=wrap;html=1;" vertex="1" parent="1">
          <mxGeometry x="355" y="758" width="80" height="40" as="geometry" />
        </mxCell>
        <mxCell id="BKcghfGbCYDGAL3umKEy-84" value="null" style="ellipse;whiteSpace=wrap;html=1;" vertex="1" parent="1">
          <mxGeometry x="465" y="758" width="80" height="40" as="geometry" />
        </mxCell>
        <mxCell id="BKcghfGbCYDGAL3umKEy-113" value="" style="edgeStyle=orthogonalEdgeStyle;rounded=0;orthogonalLoop=1;jettySize=auto;html=1;" edge="1" parent="1" source="BKcghfGbCYDGAL3umKEy-86" target="BKcghfGbCYDGAL3umKEy-111">
          <mxGeometry relative="1" as="geometry" />
        </mxCell>
        <mxCell id="BKcghfGbCYDGAL3umKEy-86" value="3.pre=cur&lt;br&gt;这个步骤很重要：保存反转后的链表&lt;br&gt;" style="text;html=1;align=center;verticalAlign=middle;resizable=0;points=[];autosize=1;strokeColor=none;fillColor=none;" vertex="1" parent="1">
          <mxGeometry x="-47.5" y="813" width="220" height="40" as="geometry" />
        </mxCell>
        <mxCell id="BKcghfGbCYDGAL3umKEy-114" style="edgeStyle=orthogonalEdgeStyle;rounded=0;orthogonalLoop=1;jettySize=auto;html=1;entryX=0;entryY=0.5;entryDx=0;entryDy=0;" edge="1" parent="1" source="BKcghfGbCYDGAL3umKEy-91" target="BKcghfGbCYDGAL3umKEy-95">
          <mxGeometry relative="1" as="geometry" />
        </mxCell>
        <mxCell id="BKcghfGbCYDGAL3umKEy-91" value="4.cur=next&lt;br&gt;再让当前节点指向下一个节点" style="text;html=1;align=center;verticalAlign=middle;resizable=0;points=[];autosize=1;strokeColor=none;fillColor=none;" vertex="1" parent="1">
          <mxGeometry x="-30" y="880" width="180" height="40" as="geometry" />
        </mxCell>
        <mxCell id="BKcghfGbCYDGAL3umKEy-94" value="" style="edgeStyle=orthogonalEdgeStyle;rounded=0;orthogonalLoop=1;jettySize=auto;html=1;" edge="1" parent="1" source="BKcghfGbCYDGAL3umKEy-95" target="BKcghfGbCYDGAL3umKEy-97">
          <mxGeometry relative="1" as="geometry" />
        </mxCell>
        <mxCell id="BKcghfGbCYDGAL3umKEy-95" value="3" style="ellipse;whiteSpace=wrap;html=1;" vertex="1" parent="1">
          <mxGeometry x="205" y="880" width="80" height="40" as="geometry" />
        </mxCell>
        <mxCell id="BKcghfGbCYDGAL3umKEy-96" value="" style="edgeStyle=orthogonalEdgeStyle;rounded=0;orthogonalLoop=1;jettySize=auto;html=1;" edge="1" parent="1" source="BKcghfGbCYDGAL3umKEy-97" target="BKcghfGbCYDGAL3umKEy-98">
          <mxGeometry relative="1" as="geometry" />
        </mxCell>
        <mxCell id="BKcghfGbCYDGAL3umKEy-97" value="4" style="ellipse;whiteSpace=wrap;html=1;" vertex="1" parent="1">
          <mxGeometry x="335" y="880" width="80" height="40" as="geometry" />
        </mxCell>
        <mxCell id="BKcghfGbCYDGAL3umKEy-98" value="5" style="ellipse;whiteSpace=wrap;html=1;" vertex="1" parent="1">
          <mxGeometry x="455" y="880" width="80" height="40" as="geometry" />
        </mxCell>
        <mxCell id="BKcghfGbCYDGAL3umKEy-105" style="edgeStyle=orthogonalEdgeStyle;rounded=0;orthogonalLoop=1;jettySize=auto;html=1;entryX=0;entryY=0.5;entryDx=0;entryDy=0;" edge="1" parent="1" source="BKcghfGbCYDGAL3umKEy-101" target="BKcghfGbCYDGAL3umKEy-83">
          <mxGeometry relative="1" as="geometry" />
        </mxCell>
        <mxCell id="BKcghfGbCYDGAL3umKEy-101" value="2" style="ellipse;whiteSpace=wrap;html=1;" vertex="1" parent="1">
          <mxGeometry x="220" y="758" width="80" height="40" as="geometry" />
        </mxCell>
        <mxCell id="BKcghfGbCYDGAL3umKEy-107" value="" style="edgeStyle=orthogonalEdgeStyle;rounded=0;orthogonalLoop=1;jettySize=auto;html=1;" edge="1" parent="1" source="BKcghfGbCYDGAL3umKEy-108" target="BKcghfGbCYDGAL3umKEy-109">
          <mxGeometry relative="1" as="geometry" />
        </mxCell>
        <mxCell id="BKcghfGbCYDGAL3umKEy-108" value="1" style="ellipse;whiteSpace=wrap;html=1;" vertex="1" parent="1">
          <mxGeometry x="359.5" y="813" width="80" height="40" as="geometry" />
        </mxCell>
        <mxCell id="BKcghfGbCYDGAL3umKEy-109" value="null" style="ellipse;whiteSpace=wrap;html=1;" vertex="1" parent="1">
          <mxGeometry x="469.5" y="813" width="80" height="40" as="geometry" />
        </mxCell>
        <mxCell id="BKcghfGbCYDGAL3umKEy-110" style="edgeStyle=orthogonalEdgeStyle;rounded=0;orthogonalLoop=1;jettySize=auto;html=1;entryX=0;entryY=0.5;entryDx=0;entryDy=0;" edge="1" parent="1" source="BKcghfGbCYDGAL3umKEy-111" target="BKcghfGbCYDGAL3umKEy-108">
          <mxGeometry relative="1" as="geometry" />
        </mxCell>
        <mxCell id="BKcghfGbCYDGAL3umKEy-111" value="2" style="ellipse;whiteSpace=wrap;html=1;" vertex="1" parent="1">
          <mxGeometry x="224.5" y="813" width="80" height="40" as="geometry" />
        </mxCell>
      </root>
    </mxGraphModel>
  </diagram>
</mxfile>
